<svg width="20" height="20" viewBox="0 0 20 20" fill="none" xmlns="http://www.w3.org/2000/svg">
<path fill-rule="evenodd" clip-rule="evenodd" d="M17.2864 9.32272C15.9715 7.38848 13.4178 4.56665 10.0002 4.56665C6.58272 4.56665 4.02902 7.38848 2.71418 9.32272C2.51763 9.6118 2.51763 9.965 2.71418 10.2541C4.02902 12.1883 6.58272 15.0102 10.0002 15.0102C13.4178 15.0102 15.9715 12.1883 17.2864 10.2541C17.4829 9.965 17.4829 9.6118 17.2864 9.32272ZM1.41864 11.1348C0.860779 10.3141 0.860779 9.26267 1.41864 8.44202C2.76407 6.4628 5.72837 3.00012 10.0002 3.00012C14.2722 3.00012 17.2364 6.4628 18.5819 8.44202C19.1398 9.26267 19.1398 10.3141 18.5819 11.1348C17.2364 13.114 14.2722 16.5767 10.0002 16.5767C5.72837 16.5767 2.76407 13.114 1.41864 11.1348ZM8.43314 9.78825C8.43314 10.6432 9.13401 11.3548 10.0216 11.3548C10.9092 11.3548 11.6101 10.6432 11.6101 9.78825C11.6101 8.93335 10.9092 8.22173 10.0216 8.22173C9.13401 8.22173 8.43314 8.93335 8.43314 9.78825ZM10.0216 6.6552C11.764 6.6552 13.1766 8.05787 13.1766 9.78825C13.1766 11.5186 11.764 12.9213 10.0216 12.9213C8.27917 12.9213 6.86665 11.5186 6.86665 9.78825C6.86665 8.05787 8.27917 6.6552 10.0216 6.6552Z" fill="#67717B"/>
<path d="M13.4998 4.0001C10.5 3 13.9831 3.50007 9.5 9.5C5.82852 15.3463 2.37479 12.9095 6.4999 15.5C10.5 17 7.32853 15.3463 11 9.49996C14.6714 3.65381 17.625 6.59067 13.4998 4.0001Z" fill="#67717B"/>
</svg>
